<?xml version="1.0" standalone="no"?>
<!DOCTYPE svg PUBLIC "-//W3C//DTD SVG 20010904//EN"
 "http://www.w3.org/TR/2001/REC-SVG-20010904/DTD/svg10.dtd">
<svg version="1.0" xmlns="http://www.w3.org/2000/svg"
 width="662" height="262" viewBox="0 0 662 262"
 preserveAspectRatio="xMidYMid meet">
<metadata>
Created by potrace 1.16, written by Peter Selinger 2001-2019
</metadata>

<defs>
  <clipPath id="writeReveal">
    <rect x="-10" y="-10" width="0" height="282">
      <animate attributeName="width" from="0" to="682" dur="2.4s" begin="0.2s" fill="freeze" calcMode="spline" keySplines="0.25 0.1 0.25 1"/>
    </rect>
  </clipPath>
</defs>
<g clip-path="url(#writeReveal)">
<g transform="translate(0.000000,262.000000) scale(0.100000,-0.100000)"
fill="#e9c176" stroke="none">
<path d="M5460 2605 c7 -8 17 -12 22 -9 6 4 5 10 -3 15 -22 14 -33 10 -19 -6z"/>
<path d="M5020 2580 c0 -5 5 -10 10 -10 6 0 10 5 10 10 0 6 -4 10 -10 10 -5 0
-10 -4 -10 -10z"/>
<path d="M5480 2560 c0 -11 2 -20 4 -20 2 0 6 9 9 20 3 11 1 20 -4 20 -5 0 -9
-9 -9 -20z"/>
<path d="M5435 2504 c-84 -70 -115 -84 -294 -135 -85 -24 -364 -38 -376 -19
-4 6 12 10 45 10 32 0 49 4 45 10 -4 6 -10 8 -15 5 -10 -6 -299 22 -415 41
-49 9 -180 26 -290 39 -205 23 -279 38 -290 56 -4 6 -11 6 -18 1 -7 -5 -79
-12 -162 -15 -134 -5 -292 -31 -312 -50 -3 -4 -31 -28 -62 -54 -150 -129 -201
-196 -201 -265 0 -32 3 -35 46 -46 56 -15 60 -13 34 21 -53 67 17 154 146 183
101 22 294 29 384 14 41 -7 98 -16 125 -21 28 -4 79 -11 115 -14 82 -7 82 -8
32 -57 -23 -22 -44 -50 -46 -62 -37 -202 -62 -471 -35 -378 5 17 11 32 12 32
5 0 -2 -232 -7 -265 -5 -30 -16 -135 -22 -210 -1 -22 -4 -58 -7 -80 -2 -22 -8
-76 -13 -120 -7 -65 -9 -73 -14 -45 -8 47 -32 -109 -25 -160 3 -19 10 -78 15
-130 9 -82 17 -108 60 -197 28 -57 50 -109 50 -116 0 -20 38 -75 63 -92 26
-17 77 -7 77 16 0 9 -3 9 -14 0 -22 -19 -42 -3 -63 52 -31 79 -43 147 -35 192
9 47 5 75 -11 75 -9 0 -8 3 1 8 9 7 10 16 1 41 -9 24 -14 29 -20 19 -7 -10 -9
-10 -9 0 0 7 -3 11 -7 9 -5 -3 -9 18 -9 46 -1 29 -3 76 -5 105 -2 28 -2 52 1
52 3 0 5 15 5 33 0 20 5 31 13 29 6 -1 12 6 13 15 3 89 19 169 30 152 5 -8 6
-21 4 -29 -10 -31 -13 -100 -5 -100 5 0 12 17 15 38 17 109 26 140 48 151 l22
11 -22 -6 c-14 -3 -23 -1 -23 6 0 17 33 70 43 70 5 0 5 10 2 21 -4 12 -3 24 2
28 13 8 25 71 14 71 -5 0 -11 -6 -14 -12 -2 -7 -7 -10 -11 -7 -9 8 17 59 30
59 11 0 17 42 44 300 13 129 46 280 74 340 l21 45 70 -3 c39 -2 117 -12 175
-22 119 -21 300 -32 300 -19 0 5 -7 9 -17 9 -9 0 -14 3 -11 6 13 13 218 15
218 3 0 -9 4 -7 13 3 6 9 37 21 67 28 124 28 102 37 -35 15 -89 -15 -173 -20
-163 -10 3 3 29 8 59 10 84 8 205 28 191 33 -25 8 -11 20 31 24 23 3 62 14 87
25 25 12 59 26 75 32 31 12 85 55 85 67 0 4 26 31 58 60 59 55 70 72 17 28z
m-788 -138 c4 -3 4 -8 2 -10 -7 -6 -69 6 -69 13 0 8 59 6 67 -3z m70 -12 c-3
-3 -12 -4 -19 -1 -8 3 -5 6 6 6 11 1 17 -2 13 -5z m-637 -788 c0 -3 -4 -8 -10
-11 -5 -3 -10 -1 -10 4 0 6 5 11 10 11 6 0 10 -2 10 -4z m-173 -158 c-3 -8 -6
-5 -6 6 -1 11 2 17 5 13 3 -3 4 -12 1 -19z m118 -38 c3 -5 1 -10 -4 -10 -6 0
-11 5 -11 10 0 6 2 10 4 10 3 0 8 -4 11 -10z m-49 -108 c-11 -10 -15 4 -8 28
l7 25 3 -23 c2 -13 1 -26 -2 -30z"/>
<path d="M4740 2480 c0 -27 27 -37 47 -17 20 19 9 37 -23 37 -17 0 -24 -5 -24
-20z"/>
<path d="M956 2460 c-49 -10 -94 -24 -99 -29 -15 -15 -1 -14 73 5 33 8 68 14
78 11 9 -2 -19 -11 -63 -21 -225 -49 -411 -135 -545 -252 -14 -12 -49 -43 -79
-69 -52 -45 -111 -110 -141 -154 -8 -12 -28 -37 -43 -54 -45 -50 -68 -104 -57
-133 8 -20 7 -24 -11 -24 -11 0 -18 -4 -15 -8 3 -5 -8 -46 -24 -93 -44 -124
-37 -200 21 -251 25 -22 35 -25 55 -18 29 12 55 3 47 -15 -9 -26 17 -85 38
-85 10 0 19 5 19 10 0 6 7 10 15 10 8 0 15 4 15 10 0 5 24 22 53 36 28 15 46
29 39 32 -8 2 -19 -1 -25 -7 -54 -54 -161 90 -166 224 -3 67 18 186 41 234 19
43 40 84 71 143 71 136 332 299 557 349 93 21 313 11 375 -16 17 -7 53 -20 80
-29 78 -25 78 -26 40 -81 -27 -41 -39 -50 -65 -51 -18 -1 -44 -11 -59 -21 -14
-11 -62 -44 -106 -73 -44 -30 -91 -65 -105 -78 -14 -14 -49 -43 -79 -65 -59
-45 -56 -63 4 -22 55 37 69 34 50 -11 -47 -112 -67 -236 -76 -454 -4 -118 -11
-228 -15 -244 -5 -23 -4 -27 6 -21 10 6 12 3 6 -11 -4 -10 -13 -42 -21 -70
-22 -86 -81 -186 -112 -190 -80 -10 -113 -16 -113 -22 0 -4 -14 -8 -32 -8 -18
-1 -34 -6 -36 -12 -2 -6 -9 -9 -15 -6 -7 2 -59 -41 -117 -97 -58 -56 -99 -98
-93 -94 7 3 13 1 13 -5 0 -6 16 -2 37 9 53 27 169 61 207 61 42 0 245 -57 276
-78 53 -35 111 -63 120 -57 6 3 10 -2 10 -11 0 -10 3 -15 6 -11 4 3 3 14 -1
24 -5 10 -7 22 -6 27 1 5 -5 6 -14 3 -9 -4 -15 -1 -15 8 0 8 6 15 13 15 6 0 4
5 -5 11 -10 5 -18 18 -18 27 1 15 2 15 15 -2 15 -20 15 -20 15 0 -1 21 -24 57
-32 48 -3 -2 -4 8 -2 23 2 15 1 20 -2 10 -3 -9 -10 -15 -14 -12 -6 3 -5 16 0
29 5 13 6 27 3 30 -4 3 1 6 11 6 9 0 14 -5 11 -10 -3 -6 -1 -25 6 -43 13 -36
51 -45 57 -14 3 16 -7 21 -35 18 -7 -1 -13 7 -13 19 0 11 6 20 13 20 8 0 7 4
-3 10 -13 9 -13 10 0 10 8 0 21 -14 29 -31 12 -29 17 -31 51 -26 27 3 37 1 37
-10 0 -7 -6 -12 -13 -9 -7 3 -14 -6 -17 -20 -2 -13 0 -24 4 -24 5 0 9 7 9 15
0 9 6 12 15 9 8 -4 15 -12 15 -20 0 -8 7 -14 15 -14 8 0 15 -8 15 -17 0 -15 2
-16 10 -3 8 12 10 12 10 -5 0 -15 2 -17 9 -6 7 11 10 11 15 0 5 -12 7 -12 12
0 5 11 8 11 15 0 6 -10 9 -8 9 9 0 23 16 30 22 10 2 -6 10 -8 17 -4 26 16
-107 88 -135 73 -17 -9 -18 -9 -5 6 7 9 11 18 7 18 -3 1 -10 3 -16 4 -5 1 -14
3 -19 4 -27 4 28 181 69 221 44 43 46 67 10 123 -23 36 -30 60 -31 100 -1 29
-4 41 -6 27 -11 -67 -27 -104 -54 -132 -35 -37 -38 -75 -10 -145 18 -47 17
-150 -1 -169 -4 -3 -29 4 -55 16 -79 36 -86 39 -133 50 -78 19 -77 17 -23 68
169 159 219 287 233 602 12 249 50 446 97 501 7 8 13 20 13 25 1 10 49 48 55
42 1 -1 -8 -46 -22 -98 -46 -178 -110 -672 -85 -657 5 4 13 42 16 85 15 192
40 347 92 571 20 90 96 211 132 211 62 0 266 -184 328 -295 107 -192 156 -354
160 -525 4 -135 -1 -170 -22 -170 -17 0 -17 -5 -3 -29 30 -46 -89 -307 -197
-434 -67 -78 -101 -101 -191 -128 -24 -6 -43 -17 -43 -22 0 -6 -7 -2 -16 9 -8
10 -13 13 -9 7 11 -23 -29 -14 -54 12 -28 30 -37 31 -51 5 -8 -15 -17 -18 -40
-13 -18 3 -30 1 -30 -5 0 -6 -11 -9 -26 -6 -16 3 -23 1 -19 -6 3 -6 0 -7 -9
-4 -9 3 -13 11 -9 18 4 6 -1 5 -10 -3 -22 -17 -22 -28 1 -34 16 -4 16 -5 0 -6
-10 0 -18 -5 -18 -11 0 -5 8 -7 18 -4 14 5 15 4 2 -5 -13 -9 -12 -12 5 -25 11
-8 17 -17 13 -21 -4 -4 -18 4 -31 18 -29 28 -64 40 -71 23 -3 -8 -7 -7 -14 2
-7 11 -10 10 -14 -5 -7 -28 1 -41 22 -36 10 3 38 -7 63 -21 25 -15 62 -28 82
-30 20 -2 41 -8 48 -15 20 -20 127 4 127 29 0 13 138 100 159 100 22 0 30 7
108 93 23 26 48 47 55 47 22 0 135 112 157 157 11 22 33 55 49 73 77 84 182
350 182 461 0 38 4 69 9 69 5 0 7 -42 5 -92 -2 -61 0 -83 5 -63 35 125 -2 380
-78 550 -44 96 -51 113 -51 119 0 25 -140 201 -199 249 -25 20 -56 46 -68 56
-175 148 -509 223 -757 171z m-873 -791 c4 -16 3 -18 -9 -8 -16 13 -19 29 -5
29 5 0 11 -9 14 -21z m31 -74 c-4 -8 -1 -22 6 -30 10 -12 9 -15 -4 -15 -16 0
-23 40 -9 53 10 11 13 8 7 -8z m1973 -17 c-3 -8 -6 -5 -6 6 -1 11 2 17 5 13 3
-3 4 -12 1 -19z m13 -58 c0 -22 -2 -40 -4 -40 -2 0 -6 18 -8 40 -2 22 0 40 4
40 5 0 8 -18 8 -40z m-2050 -50 c0 -5 -5 -10 -11 -10 -5 0 -7 5 -4 10 3 6 8
10 11 10 2 0 4 -4 4 -10z m1899 -33 c1 -5 -3 -5 -9 -2 -5 3 -10 16 -9 28 0 21
1 21 9 2 5 -11 9 -24 9 -28z m-1479 -701 c9 -12 8 -15 -8 -13 -12 0 -18 6 -15
14 6 16 8 16 23 -1z m860 -116 c0 -5 -7 -7 -15 -4 -8 4 -15 8 -15 10 0 2 7 4
15 4 8 0 15 -4 15 -10z m-70 -110 l23 -20 -26 0 c-28 0 -42 14 -32 30 8 13 8
13 35 -10z"/>
<path d="M818 2413 c7 -3 16 -2 19 1 4 3 -2 6 -13 5 -11 0 -14 -3 -6 -6z"/>
<path d="M5910 2190 c0 -5 5 -10 10 -10 6 0 10 5 10 10 0 6 -4 10 -10 10 -5 0
-10 -4 -10 -10z"/>
<path d="M4788 2173 c12 -2 30 -2 40 0 9 3 -1 5 -23 4 -22 0 -30 -2 -17 -4z"/>
<path d="M4858 2173 c7 -3 16 -2 19 1 4 3 -2 6 -13 5 -11 0 -14 -3 -6 -6z"/>
<path d="M5445 2166 c-16 -8 -57 -35 -90 -60 -33 -25 -64 -46 -68 -46 -4 0
-22 -10 -40 -22 -96 -67 -127 -94 -127 -110 0 -22 13 -23 31 -2 17 20 95 74
107 74 11 0 8 -43 -9 -155 -7 -38 -13 -133 -14 -210 -2 -77 -6 -165 -10 -195
-5 -49 -5 -53 8 -36 10 13 16 16 21 7 11 -17 -3 -71 -20 -78 -8 -3 -14 -12
-14 -20 0 -8 4 -12 9 -9 11 7 33 -19 24 -28 -5 -4 -8 -31 -8 -59 -3 -162 -41
-445 -71 -521 -10 -27 -35 -57 -71 -86 -68 -55 -118 -116 -127 -152 -9 -39 5
-35 50 13 71 74 200 110 286 80 95 -35 239 -47 222 -20 -3 5 5 8 18 6 14 -1
22 3 20 11 -1 6 4 12 10 12 9 0 8 3 -2 10 -12 7 -12 12 -2 22 9 9 12 9 12 0 0
-16 35 -10 58 11 10 9 22 14 27 10 4 -5 5 -2 1 5 -5 8 -13 9 -23 3 -17 -9 -53
-3 -53 9 0 4 7 10 15 14 8 3 15 1 15 -5 0 -6 9 -8 20 -4 12 4 27 1 35 -5 12
-10 15 -10 15 0 0 8 3 11 6 8 9 -10 -20 -49 -32 -44 -7 2 -27 -8 -45 -23 -32
-27 -33 -29 -15 -46 17 -18 17 -19 -8 -32 -15 -8 -31 -11 -36 -8 -6 3 -10 2
-10 -3 0 -18 211 -104 229 -93 14 9 61 2 61 -9 0 -4 7 -11 16 -14 8 -3 12 -2
9 4 -4 6 7 10 24 10 44 0 41 27 -4 36 -30 5 -34 9 -23 21 7 8 22 13 35 10 28
-5 59 29 43 48 -6 7 -2 15 12 24 18 11 20 11 15 -3 -7 -18 8 -22 19 -5 6 10
-11 28 -28 29 -4 0 -19 -11 -34 -25 -15 -14 -29 -25 -30 -25 -10 0 -1 13 22
35 25 23 25 25 8 31 -11 3 -46 17 -79 32 -130 55 -180 72 -199 66 -12 -4 -18
-3 -14 1 30 32 -209 75 -311 57 -36 -7 -66 -10 -68 -8 -4 4 85 176 102 196 7
8 16 29 19 45 2 17 9 46 15 65 13 45 39 344 46 525 11 288 37 528 64 598 20
51 -1 61 -64 33z m-15 -512 c0 -8 -5 -12 -10 -9 -6 4 -8 11 -5 16 9 14 15 11
15 -7z m-34 -562 c-13 -12 -17 8 -10 40 l9 33 3 -33 c2 -19 1 -36 -2 -40z
m124 -458 c0 -8 -19 -13 -24 -6 -3 5 1 9 9 9 8 0 15 -2 15 -3z m-70 -60 c0 -2
-9 -4 -21 -4 -11 0 -18 4 -14 10 5 8 35 3 35 -6z m280 -3 c0 -5 -7 -16 -15
-25 -8 -8 -15 -19 -15 -25 0 -6 -4 -11 -10 -11 -5 0 -10 7 -10 16 0 8 -4 12
-10 9 -19 -12 -10 7 13 26 24 20 47 25 47 10z m100 -16 c0 -8 -3 -15 -7 -16
-5 0 -25 -2 -46 -4 -27 -3 -37 -1 -34 8 3 10 17 15 80 26 4 0 7 -6 7 -14z
m-316 -20 c6 -17 4 -18 -18 -9 -20 8 -21 24 -2 24 8 0 16 -7 20 -15z m289 -35
c-8 -29 -21 -34 -18 -7 3 27 3 27 14 27 5 0 7 -9 4 -20z m44 -27 c-8 -7 -37 9
-31 19 3 5 12 4 20 -3 8 -6 13 -14 11 -16z m70 -9 c-3 -3 -12 -4 -19 -1 -8 3
-5 6 6 6 11 1 17 -2 13 -5z m-100 -28 c-8 -9 -17 -21 -20 -28 -2 -8 -8 -9 -13
-4 -5 5 -4 11 4 13 6 3 12 11 12 18 0 7 6 15 13 18 19 7 21 -1 4 -17z"/>
<path d="M5760 2130 c0 -5 5 -10 10 -10 6 0 10 5 10 10 0 6 -4 10 -10 10 -5 0
-10 -4 -10 -10z"/>
<path d="M3614 2087 c-22 -18 -49 -41 -60 -52 -57 -55 -75 -66 -90 -54 -23 19
-32 -3 -74 -181 -6 -25 -67 -159 -137 -299 -137 -278 -143 -284 -158 -166 -7
58 -25 76 -25 25 0 -16 5 -30 10 -30 6 0 10 -5 10 -11 0 -31 -26 5 -42 57 -20
66 -23 104 -8 104 6 0 10 -13 10 -29 0 -17 4 -32 9 -36 20 -12 -1 86 -44 205
-23 62 -28 98 -32 205 -7 167 -34 227 -70 154 -9 -17 -22 -25 -45 -26 -21 -2
-45 -15 -68 -37 -19 -19 -47 -37 -61 -41 -22 -5 -109 -101 -109 -120 0 -4 16
5 35 20 45 34 61 28 72 -27 9 -44 8 -53 -37 -253 -12 -49 -27 -130 -35 -180
-15 -94 -21 -122 -61 -295 -26 -109 -63 -230 -70 -230 -2 0 -13 6 -24 13 -17
10 -22 9 -30 -3 -16 -25 -7 -55 18 -58 17 -3 22 -10 22 -34 0 -33 23 -35 28
-2 2 10 11 24 19 31 8 6 13 18 11 25 -5 15 32 100 55 126 22 26 55 111 62 164
3 26 13 54 21 63 21 20 41 72 48 125 7 45 31 137 46 175 8 21 7 24 47 -125 18
-67 35 -113 43 -120 17 -14 80 -290 80 -351 0 -48 4 -70 15 -79 9 -7 17 -11
18 -9 20 29 48 111 43 125 -5 14 -4 15 9 4 18 -15 17 -15 39 27 11 22 24 33
43 35 l28 3 -4 83 c-2 58 0 82 9 82 8 0 9 10 5 29 -3 16 -2 38 3 48 5 10 24
56 42 103 32 83 94 205 124 245 14 18 15 8 17 -115 1 -74 2 -139 4 -145 1 -5
3 -24 3 -42 1 -17 9 -38 17 -46 10 -11 14 -34 13 -74 -1 -69 21 -180 34 -161
5 9 8 3 8 -15 0 -16 -4 -26 -9 -23 -11 7 -4 -115 10 -169 10 -40 31 -94 49
-127 6 -10 10 -27 10 -38 0 -11 5 -20 12 -20 6 0 9 -3 5 -6 -8 -8 32 -97 69
-154 15 -25 27 -48 26 -52 -1 -3 5 -8 12 -11 10 -4 12 0 9 14 -3 10 -9 19 -14
19 -5 0 -9 4 -9 10 0 39 114 -41 191 -135 25 -30 69 -65 82 -65 7 0 18 -9 25
-21 7 -12 16 -18 19 -15 3 3 11 -1 17 -9 6 -7 25 -17 41 -21 17 -4 27 -3 22 2
-5 5 -12 9 -15 9 -14 0 -121 80 -122 91 0 5 -14 23 -30 39 -22 21 -27 31 -18
37 10 6 9 8 -2 8 -9 0 -21 12 -28 28 -11 25 -21 42 -47 82 -5 8 -10 21 -11 30
0 8 -17 56 -36 105 -32 82 -56 156 -62 195 -1 9 -5 20 -8 25 -17 28 -40 235
-26 235 4 0 8 8 8 19 0 26 -21 82 -28 77 -4 -2 -5 16 -3 40 2 35 0 44 -13 44
-17 0 -23 35 -7 44 5 3 8 -2 7 -11 0 -9 5 -18 12 -20 18 -7 12 54 -10 97 -22
42 -23 65 -2 30 14 -23 15 -18 9 67 -10 159 38 631 70 679 38 59 13 84 -41 41z
m-129 -777 c-10 -11 -21 -18 -23 -15 -3 3 3 12 14 20 27 20 30 18 9 -5z m100
-80 c3 -5 1 -10 -4 -10 -6 0 -11 5 -11 10 0 6 2 10 4 10 3 0 8 -4 11 -10z m-5
-110 c0 -5 -2 -10 -4 -10 -3 0 -8 5 -11 10 -3 6 -1 10 4 10 6 0 11 -4 11 -10z
m-67 -73 l22 18 -19 -22 c-11 -13 -23 -23 -28 -23 -4 0 -7 10 -7 23 1 18 2 18
6 4 5 -18 5 -18 26 0z m-43 -61 c0 -8 -5 -18 -12 -22 -7 -5 -9 -2 -5 9 3 9 1
18 -6 21 -7 2 -4 5 6 5 9 1 17 -5 17 -13z m80 -46 c0 -5 -5 -10 -11 -10 -5 0
-7 5 -4 10 3 6 8 10 11 10 2 0 4 -4 4 -10z m-64 -36 c-3 -8 -11 -12 -17 -8 -8
4 -7 9 2 15 8 5 10 9 6 9 -5 0 -5 5 -1 12 10 16 18 -7 10 -28z m61 -130 c-3
-3 -12 -4 -19 -1 -8 3 -5 6 6 6 11 1 17 -2 13 -5z m17 -166 c-3 -5 -12 -4 -20
3 -19 16 -18 18 6 12 11 -3 17 -9 14 -15z m91 -158 c-3 -5 -12 -10 -18 -10 -7
0 -6 4 3 10 19 12 23 12 15 0z m-31 -59 c-7 -7 -12 3 -19 34 l-6 30 14 -30 c8
-16 13 -32 11 -34z"/>
<path d="M2345 2100 c4 -6 11 -8 16 -5 14 9 11 15 -7 15 -8 0 -12 -5 -9 -10z"/>
<path d="M4725 2036 c-8 -19 -15 -45 -15 -56 0 -23 -10 -26 -28 -8 -9 9 -12 5
-12 -17 0 -46 -13 -60 -40 -45 -31 17 -70 5 -71 -23 -2 -27 -2 -24 14 -71 13
-36 13 -41 -7 -71 -23 -35 -114 -224 -142 -295 -45 -116 -59 -140 -86 -149
-16 -6 -28 -14 -28 -20 0 -5 -8 -7 -19 -4 -25 6 -96 -31 -118 -63 -10 -14 -28
-35 -40 -47 -13 -11 -23 -29 -23 -39 0 -26 32 -23 58 6 22 26 94 51 118 42 16
-6 19 -32 5 -41 -6 -3 -22 -31 -36 -63 -54 -118 -97 -198 -124 -232 -41 -52
-53 -77 -40 -86 9 -5 87 57 97 79 2 4 21 10 43 13 21 4 39 10 39 15 0 4 14 16
30 26 17 9 30 21 30 25 0 4 -13 8 -30 8 -29 0 -42 21 -21 34 4 3 14 26 21 51
7 24 19 50 26 56 8 6 14 16 14 21 0 6 14 32 31 58 28 43 36 49 78 55 61 8 111
24 111 36 0 5 5 9 11 9 6 0 32 11 58 24 29 14 48 19 49 12 3 -35 37 -145 74
-238 10 -26 18 -51 18 -57 0 -26 74 -162 106 -195 59 -61 81 -54 196 65 92 96
121 144 58 99 -15 -11 -33 -20 -38 -20 -19 0 -71 77 -112 166 -22 49 -45 97
-50 106 -6 10 -10 26 -10 35 -1 10 -7 36 -15 58 -15 40 -15 40 17 68 18 15 38
27 44 27 7 0 14 7 18 15 5 13 2 14 -22 2 -64 -33 -80 -31 -87 10 -4 21 -13 67
-20 103 -28 134 -34 169 -55 330 -12 91 -24 176 -28 189 -11 38 -31 37 -47 -3z
m-80 -610 c10 -42 16 -79 13 -82 -3 -2 -44 -4 -91 -2 l-86 3 67 135 67 135 6
-56 c3 -31 14 -91 24 -133z"/>
<path d="M6150 2001 c-68 -23 -294 -195 -310 -237 -5 -13 -13 -24 -17 -24 -5
0 -16 -14 -25 -31 -10 -17 -22 -28 -27 -25 -24 15 -97 -113 -122 -212 -11 -43
-19 -57 -48 -74 -52 -31 -107 -92 -87 -96 9 -2 28 6 42 17 15 12 37 21 50 21
22 0 23 -3 23 -91 1 -180 71 -348 179 -429 66 -49 99 -63 106 -44 3 8 1 14 -5
14 -6 0 -8 4 -5 9 6 9 -22 37 -33 35 -16 -3 -32 10 -27 22 3 8 0 14 -8 14 -7
0 -13 6 -13 13 0 6 -4 21 -8 32 -6 19 -6 19 8 2 14 -17 15 -17 19 1 5 19 -15
45 -27 34 -4 -4 -2 3 4 16 6 12 19 22 29 21 10 0 12 -3 5 -6 -23 -9 -14 -33
12 -33 29 0 34 -16 8 -23 -13 -3 -12 -5 5 -6 15 -1 21 -5 16 -13 -4 -7 -3 -8
5 -4 6 4 9 11 6 16 -3 5 -1 11 5 15 5 3 10 17 10 31 0 17 5 24 20 24 20 0 20
0 0 33 -11 17 -23 39 -26 47 -4 8 -13 22 -19 30 -17 21 -54 133 -62 186 -6 47
1 52 75 45 13 -1 29 2 35 8 13 10 64 9 112 -3 17 -4 25 -4 18 1 -6 5 10 8 40
8 62 0 132 25 101 35 -18 7 100 40 139 40 8 0 20 6 26 14 7 8 32 20 56 27 25
7 45 17 45 22 0 5 -8 6 -17 3 -96 -28 -219 -32 -375 -14 -123 15 -204 16 -237
4 -23 -8 -23 -8 -16 45 10 74 29 127 70 196 19 32 37 65 41 73 8 22 79 70 103
70 11 0 45 -22 75 -50 60 -53 116 -87 116 -70 0 6 5 8 10 5 21 -13 9 -61 -25
-99 -36 -41 -43 -56 -24 -56 22 0 279 268 279 291 0 19 -27 8 -38 -16 l-11
-25 -35 21 c-19 11 -49 39 -67 63 -57 74 -114 99 -179 77z m59 -72 c37 -30 17
-34 -26 -5 -28 20 -33 26 -18 26 11 -1 31 -10 44 -21z m101 -95 c0 -2 -9 0
-20 6 -11 6 -20 13 -20 16 0 2 9 0 20 -6 11 -6 20 -13 20 -16z m-556 -903 c4
-5 -3 -7 -14 -4 -23 6 -26 13 -6 13 8 0 17 -4 20 -9z m141 -120 c3 -5 1 -12
-5 -16 -5 -3 -10 1 -10 9 0 18 6 21 15 7z"/>
<path d="M2480 1965 c-24 -12 -50 -20 -57 -18 -7 3 -16 -2 -19 -11 -3 -9 -12
-16 -20 -16 -13 0 -160 -96 -196 -128 -21 -18 -24 -42 -5 -42 6 0 27 14 46 30
18 17 37 30 40 30 33 0 40 -85 15 -185 -8 -33 -19 -143 -24 -245 -5 -102 -14
-255 -20 -340 -12 -184 -18 -414 -9 -397 7 13 21 105 23 152 0 17 6 35 13 40
13 11 32 77 39 134 9 75 24 101 20 34 -4 -68 10 -87 19 -25 5 35 31 156 42
195 7 26 26 9 20 -19 -3 -19 -1 -22 9 -14 11 10 28 89 38 185 19 181 47 341
87 496 37 148 21 186 -61 144z m-70 -740 c0 -14 -4 -25 -9 -25 -4 0 -6 11 -3
25 2 14 6 25 8 25 2 0 4 -11 4 -25z"/>
<path d="M5680 1980 c0 -5 5 -10 11 -10 5 0 7 5 4 10 -3 6 -8 10 -11 10 -2 0
-4 -4 -4 -10z"/>
<path d="M5548 1869 c-22 -12 -23 -35 -3 -43 16 -6 48 31 39 46 -7 10 -15 10
-36 -3z"/>
<path d="M5565 1790 c-3 -5 -1 -10 4 -10 6 0 11 5 11 10 0 6 -2 10 -4 10 -3 0
-8 -4 -11 -10z"/>
<path d="M5500 1755 c0 -8 7 -15 15 -15 8 0 15 7 15 15 0 8 -7 15 -15 15 -8 0
-15 -7 -15 -15z"/>
<path d="M3877 1711 c-4 -17 -3 -21 5 -13 5 5 8 16 6 23 -3 8 -7 3 -11 -10z"/>
<path d="M3722 1707 c-9 -10 -8 -18 2 -32 18 -25 48 -13 44 17 -4 27 -30 35
-46 15z"/>
<path d="M3872 1660 c0 -14 2 -19 5 -12 2 6 2 18 0 25 -3 6 -5 1 -5 -13z"/>
<path d="M3860 1585 c0 -8 2 -15 4 -15 2 0 6 7 10 15 3 8 1 15 -4 15 -6 0 -10
-7 -10 -15z"/>
<path d="M5160 1584 c0 -8 5 -12 10 -9 6 3 10 10 10 16 0 5 -4 9 -10 9 -5 0
-10 -7 -10 -16z"/>
<path d="M5085 1350 c3 -5 8 -10 11 -10 2 0 4 5 4 10 0 6 -5 10 -11 10 -5 0
-7 -4 -4 -10z"/>
<path d="M777 1323 c-16 -15 -7 -53 13 -53 30 0 45 36 21 50 -23 12 -26 12
-34 3z"/>
<path d="M1141 1284 c0 -11 3 -14 6 -6 3 7 2 16 -1 19 -3 4 -6 -2 -5 -13z"/>
<path d="M2091 1264 c0 -11 3 -14 6 -6 3 7 2 16 -1 19 -3 4 -6 -2 -5 -13z"/>
<path d="M3795 1271 c-8 -15 3 -31 21 -31 9 0 14 7 12 17 -4 20 -24 28 -33 14z"/>
<path d="M1800 1240 c0 -5 5 -10 10 -10 6 0 10 5 10 10 0 6 -4 10 -10 10 -5 0
-10 -4 -10 -10z"/>
<path d="M2072 1205 c-17 -37 -14 -45 4 -12 9 16 14 31 11 33 -2 2 -9 -7 -15
-21z"/>
<path d="M6497 1204 c-4 -4 -7 -19 -7 -33 0 -23 -41 -118 -63 -146 -53 -68
-121 -115 -167 -115 -11 0 -20 -4 -20 -10 0 -5 -6 -7 -12 -5 -7 2 -34 6 -59 8
-26 3 -70 17 -100 31 -29 15 -58 25 -65 22 -7 -3 -15 3 -19 11 -5 15 -7 15
-23 0 -15 -16 -15 -18 2 -34 13 -13 20 -15 23 -6 3 10 9 9 20 -3 9 -8 23 -12
31 -9 9 3 13 3 10 -1 -10 -9 50 -57 62 -49 5 3 10 -1 10 -9 0 -9 -6 -13 -13
-10 -8 3 -19 -2 -26 -10 -11 -13 -15 -12 -32 5 -10 10 -19 23 -19 29 0 5 -7 7
-15 4 -8 -4 -12 -10 -9 -15 3 -5 -10 -9 -30 -9 -19 0 -36 6 -39 13 -3 6 -4 2
-4 -10 1 -12 4 -21 7 -21 33 3 89 -47 72 -64 -8 -8 -15 -8 -26 1 -8 7 -17 8
-20 3 -5 -9 19 -21 54 -27 8 -2 20 -4 25 -5 31 -7 53 2 59 25 4 16 15 27 34
30 15 4 35 10 44 16 10 5 25 9 33 9 8 0 14 5 13 12 -2 7 2 13 7 13 39 5 151
74 205 127 70 67 116 169 96 210 -12 23 -28 32 -39 22z m-337 -358 c0 -2 -7
-6 -15 -10 -8 -3 -15 -1 -15 4 0 6 7 10 15 10 8 0 15 -2 15 -4z m-110 -71 c10
-12 10 -15 -4 -15 -9 0 -16 7 -16 15 0 8 2 15 4 15 2 0 9 -7 16 -15z"/>
<path d="M5928 923 c-3 -13 -2 -23 4 -23 5 0 7 -4 4 -9 -6 -10 16 -21 41 -21
12 0 12 2 -1 16 -9 8 -13 21 -9 27 4 6 0 8 -10 4 -10 -4 -17 0 -19 11 -3 13
-5 12 -10 -5z"/>
<path d="M5986 911 c-4 -7 -5 -15 -2 -18 9 -9 19 4 14 18 -4 11 -6 11 -12 0z"/>
<path d="M6206 795 c-11 -8 -31 -15 -45 -15 -34 0 -58 -15 -41 -25 6 -4 17 -2
23 4 6 6 18 11 27 11 8 0 29 9 45 20 17 11 26 20 20 20 -5 -1 -19 -7 -29 -15z"/>
<path d="M6600 700 c-6 -12 -9 -24 -7 -27 3 -2 11 5 17 17 6 12 9 24 7 27 -3
2 -11 -5 -17 -17z"/>
<path d="M2670 685 c0 -8 7 -15 15 -15 8 0 15 7 15 15 0 8 -7 15 -15 15 -8 0
-15 -7 -15 -15z"/>
<path d="M1275 649 c-4 -6 -5 -12 -2 -15 2 -3 7 2 10 11 7 17 1 20 -8 4z"/>
<path d="M6550 635 c-33 -35 -163 -109 -229 -130 -43 -14 -73 -16 -143 -11
-54 3 -88 2 -88 -4 0 -5 7 -7 16 -3 12 4 15 2 12 -8 -3 -8 -19 -14 -37 -15
-18 -1 -37 -7 -42 -15 -13 -21 -11 -29 6 -23 11 5 14 1 9 -12 -4 -14 -3 -16 4
-5 11 15 36 6 27 -10 -8 -12 -55 -12 -55 1 0 14 -27 12 -33 -2 -4 -10 -8 -10
-15 1 -6 9 -12 10 -16 2 -13 -21 74 -54 144 -54 73 -1 188 42 174 64 -5 8 -3
9 6 4 8 -5 21 3 36 20 29 34 30 38 3 30 -15 -5 -19 -4 -14 5 4 6 16 9 27 7 31
-8 164 75 152 94 -3 5 1 6 9 4 11 -5 87 66 87 81 0 11 -19 1 -40 -21z m-437
-206 c-3 -10 -11 -15 -19 -12 -23 9 -16 30 10 30 8 0 11 -7 9 -18z m119 10
c21 13 22 13 9 -2 -7 -10 -22 -17 -32 -17 -20 0 -32 13 -22 24 4 3 10 1 15 -6
6 -10 12 -10 30 1z m68 1 c0 -5 -7 -10 -15 -10 -8 0 -15 5 -15 10 0 6 7 10 15
10 8 0 15 -4 15 -10z m-160 -36 c0 -8 -4 -12 -10 -9 -5 3 -10 10 -10 16 0 5 5
9 10 9 6 0 10 -7 10 -16z m37 -6 c-3 -8 -6 -5 -6 6 -1 11 2 17 5 13 3 -3 4
-12 1 -19z"/>
<path d="M293 612 c-4 -9 -13 -21 -20 -25 -7 -5 -11 -12 -8 -18 4 -5 -1 -9
-10 -9 -12 0 -15 -6 -10 -19 3 -11 1 -22 -5 -26 -6 -3 -8 -11 -5 -16 11 -17
22 -9 28 19 3 16 20 43 36 61 36 38 36 37 16 45 -10 3 -18 -1 -22 -12z"/>
<path d="M1016 551 c-4 -7 -5 -15 -2 -18 9 -9 19 4 14 18 -4 11 -6 11 -12 0z"/>
<path d="M2201 498 c-10 -28 -8 -51 7 -56 16 -5 32 31 25 56 -7 28 -21 28 -32
0z"/>
<path d="M5525 500 c-19 -8 -19 -9 3 -9 12 -1 22 4 22 9 0 6 -1 10 -2 9 -2 0
-12 -4 -23 -9z"/>
<path d="M5890 360 c0 -5 5 -10 10 -10 6 0 10 5 10 10 0 6 -4 10 -10 10 -5 0
-10 -4 -10 -10z"/>
<path d="M3682 320 c12 -16 23 -30 25 -30 2 0 -3 14 -12 30 -9 17 -20 30 -26
30 -5 0 0 -13 13 -30z"/>
<path d="M5240 334 c0 -17 22 -14 28 4 2 7 -3 12 -12 12 -9 0 -16 -7 -16 -16z"/>
<path d="M4013 83 c-19 -7 65 -49 112 -56 l40 -5 -37 11 c-21 6 -38 14 -38 19
0 4 -9 8 -20 8 -11 0 -20 7 -20 15 0 15 -14 18 -37 8z"/>
<path d="M4205 10 c3 -5 10 -10 16 -10 5 0 9 5 9 10 0 6 -7 10 -16 10 -8 0
-12 -4 -9 -10z"/>
</g>
</g>
</svg>
